<svg xmlns="http://www.w3.org/2000/svg" aria-hidden="true" style="position:absolute;width:0;height:0;overflow:hidden"><defs><symbol id="icon-close-modal-icon" viewBox="0 0 32 32"><path d="M19.798 16.001 31.683 4.117a1.08 1.08 0 0 0 0-1.527L29.412.318a1.08 1.08 0 0 0-1.526 0L16.001 12.203 4.116.318a1.08 1.08 0 0 0-1.526 0L.319 2.59a1.08 1.08 0 0 0 0 1.527l11.885 11.885L.32 27.885a1.08 1.08 0 0 0 0 1.527l2.272 2.272a1.08 1.08 0 0 0 1.526 0L16.002 19.8l11.884 11.884a1.08 1.08 0 0 0 1.526 0l2.272-2.272a1.08 1.08 0 0 0 0-1.527L19.8 16.002z"/></symbol><symbol id="icon-Vector" viewBox="0 0 55 32"><path  d="M1.091 25.309 25.527.8c.291-.291.606-.496.945-.617.339-.122.703-.183 1.091-.183s.752.061 1.091.183c.339.12.655.326.945.617l24.509 24.509c.679.679 1.018 1.527 1.018 2.545s-.364 1.891-1.091 2.618c-.727.727-1.576 1.091-2.545 1.091s-1.818-.364-2.545-1.091L27.563 9.09 6.181 30.472c-.679.679-1.515 1.018-2.508 1.018-.995 0-1.856-.364-2.583-1.091s-1.091-1.576-1.091-2.545c0-.97.364-1.818 1.091-2.545z"/></symbol><symbol id="icon-github-logo" viewBox="0 0 32 32"><path d="M16 0C7.165 0 0 7.164 0 16c0 7.069 4.584 13.067 10.943 15.183.799.148 1.057-.348 1.057-.769v-2.979c-4.451.968-5.377-1.888-5.377-1.888-.728-1.849-1.777-2.341-1.777-2.341-1.452-.993.111-.972.111-.972 1.607.112 2.452 1.649 2.452 1.649 1.427 2.445 3.743 1.739 4.656 1.329.143-1.033.557-1.74 1.016-2.139-3.553-.407-7.289-1.779-7.289-7.908 0-1.748.625-3.175 1.648-4.295-.165-.404-.713-2.032.156-4.235 0 0 1.344-.429 4.401 1.64a15.345 15.345 0 0 1 4.004-.539c1.36.007 2.729.184 4.008.539 3.055-2.069 4.396-1.64 4.396-1.64.871 2.204.323 3.832.157 4.235 1.027 1.12 1.647 2.548 1.647 4.295 0 6.145-3.743 7.499-7.305 7.895.573.496 1.097 1.469 1.097 2.963v4.391c0 .425.256.925 1.068.768 6.353-2.119 10.932-8.115 10.932-15.181 0-8.836-7.164-16-16-16z"/></symbol><symbol id="icon-linkedin-logo" viewBox="0 0 32 32"><path  d="M24.45 24.45h-3.556v-5.57c0-1.328-.024-3.038-1.85-3.038-1.852 0-2.136 1.448-2.136 2.94v5.668h-3.556V12.996h3.414v1.566h.048a3.75 3.75 0 0 1 3.368-1.85c3.604 0 4.27 2.37 4.27 5.456l-.002 6.28zM9.34 11.43a2.074 2.074 0 0 1-2.064-2.061v-.001c0-1.132.932-2.064 2.064-2.064s2.062.932 2.064 2.064a2.074 2.074 0 0 1-2.064 2.064zm1.778 13.02h-3.56V12.996h3.56V24.45zM26.22 4H5.76A1.76 1.76 0 0 0 4 5.731V26.268A1.76 1.76 0 0 0 5.76 28h20.476c.963 0 1.746-.772 1.764-1.73V5.73a1.76 1.76 0 0 0-1.76-1.728h-.019.001z"/></symbol></defs></svg>