<svg xmlns="http://www.w3.org/2000/svg" aria-hidden="true" style="position:absolute;width:0;height:0;overflow:hidden">
<defs>
<symbol id="icon-logo" viewBox="0 0 32 32">
<path fill="#f6f6f6" style="fill: var(--color1, #f6f6f6)" d="M0 0l16.343 16.172 15.657 15.828v-32h-32z"></path>
<path fill="#f6f6f6" style="fill: var(--color1, #f6f6f6)" d="M4.457 4.228l11.943 11.829 11.257 11.485h-23.2v-23.315z"></path>
<path fill="#4f2ee8" style="fill: var(--color2, #4f2ee8)" d="M27.733 27.619l-11.944-11.829-11.256-11.485h23.2v23.315z"></path>
<path fill="#4f2ee8" style="fill: var(--color2, #4f2ee8)" d="M9.257 9.028l13.6 13.601h-13.6v-13.6z"></path>
<path fill="#f6f6f6" style="fill: var(--color1, #f6f6f6)" d="M9.257 9.028l13.6 13.601v-13.6h-13.6z"></path>
</symbol>
<symbol id="icon-align-left" viewBox="0 0 32 32">
<path stroke-linejoin="round" stroke-linecap="round" stroke-miterlimit="4" stroke-width="2.2857" d="M22.666 13.334h-18.666M28 8h-24M28 18.666h-24M22.666 24h-18.666"></path>
</symbol>
<symbol id="arrow-back" viewBox="0 0 32 32"><path fill="#fff" d="M4.5 19.6 15.7 8.367c.133-.133.278-.228.433-.283s.322-.084.5-.084.345.028.5.084.3.149.433.283L28.799 19.6c.311.311.467.7.467 1.167s-.167.867-.5 1.2c-.333.333-.722.5-1.167.5s-.833-.167-1.167-.5l-9.8-9.8-9.8 9.8c-.311.311-.694.467-1.149.467s-.851-.167-1.184-.5-.5-.722-.5-1.167c0-.444.167-.833.5-1.167z" style="fill:var(--color1, #fff)"/></symbol>
<symbol id="arrow-down" viewBox="0 0 32 32"><path d="M15.053 17.867c0.124 0.125 0.271 0.224 0.434 0.292s0.337 0.103 0.513 0.103 0.35-0.035 0.513-0.103c0.162-0.068 0.31-0.167 0.434-0.292l6.107-6.12c0.124-0.125 0.271-0.224 0.434-0.292s0.337-0.103 0.513-0.103c0.176 0 0.35 0.035 0.513 0.103s0.31 0.167 0.434 0.292c0.248 0.25 0.388 0.588 0.388 0.94s-0.139 0.69-0.388 0.94l-6.12 6.12c-0.75 0.749-1.767 1.17-2.827 1.17s-2.077-0.421-2.827-1.17l-6.12-6.12c-0.246-0.248-0.385-0.584-0.387-0.933-0.001-0.175 0.033-0.349 0.099-0.512s0.164-0.31 0.288-0.435c0.124-0.125 0.271-0.224 0.434-0.292s0.337-0.103 0.513-0.103c0.176 0 0.35 0.035 0.513 0.103s0.31 0.167 0.434 0.292l6.107 6.12z"></path></symbol>
<symbol id="arrow-right" viewBox="0 0 32 32"><path fill="none" stroke="#eac645" stroke-linecap="round" stroke-linejoin="round" stroke-width="3.2" d="M5.333 16h21.333m.001 0-8-8m8 8-8 8" style="stroke:var(--color2, #eac645)"/></symbol>
<symbol id="dump" viewBox="0 0 32 32"><path fill="#4f2ee8" d="M32 16c0 8.837-7.163 16-16 16S0 24.837 0 16 7.163 0 16 0s16 7.163 16 16z" style="fill:var(--color3, #4f2ee8)"/><path fill="none" stroke="#fff" stroke-linecap="round" stroke-linejoin="round" stroke-width="1.684" d="M13.684 9.053h4.632m-9.263 2.315h13.895m-1.544 0-.541 8.12c-.081 1.218-.122 1.827-.385 2.289a2.322 2.322 0 0 1-1.002.938c-.478.232-1.089.232-2.31.232h-2.33c-1.221 0-1.832 0-2.31-.232a2.31 2.31 0 0 1-1.002-.938c-.263-.462-.304-1.071-.385-2.289l-.541-8.12m3.858 3.474v3.86m3.088-3.86v3.86" style="stroke:var(--color1, #fff)"/></symbol>
<symbol id="tryzub" viewBox="0 0 20 32"><path fill="#fff" d="M9.005 30.888a8.64 8.64 0 0 1-3.414-5.351H0V2.42c2.991 1.443 5.153 4.599 5.388 7.876l.846 6.493-.407-.045c-.893 0-1.676.812-1.676 1.608 0 .752.595 1.383 1.378 1.548l1.018.226c1.676-3.051 2.631-6.042 2.631-8.973 0-2.645-.36-5.291-.423-7.996 0-1.202.486-2.3 1.253-3.156.783.857 1.253 1.954 1.253 3.156 0 2.705-.423 5.351-.423 7.996 0 2.931.955 5.922 2.631 8.973l1.018-.226c.783-.165 1.378-.812 1.378-1.548 0-.812-.783-1.608-1.676-1.608l-.423.06.846-6.493c.423-3.277 2.396-6.448 5.388-7.876v23.117h-5.576c-.423 2.179-1.613 4.148-3.414 5.351-.423.286-.783.631-1.018 1.097-.219-.466-.579-.812-.987-1.112zM2.647 17.556c.235-.857.893-1.608 1.738-2.074l-.658-5.351a8.288 8.288 0 0 0-2.036-4.374v11.784h.955v.015zm2.819 6.373c0-.812.125-1.548.298-2.3l-.783-.18c-1.143-.346-2.036-1.203-2.334-2.3h-.955v4.78h3.774zm3.712 0c0-.977-.783-1.834-1.801-1.954-.172.631-.298 1.263-.298 1.954h2.099zm0 1.623H7.314c.298 1.263.955 2.42 1.864 3.397v-3.397zm2.631-5.005c-.72-1.262-1.378-2.585-1.801-3.968-.423 1.383-1.081 2.706-1.801 3.968.72.165 1.316.631 1.801 1.157.486-.526 1.081-.992 1.801-1.157zm1.143 3.382c0-.691-.125-1.323-.297-1.954-1.018.12-1.801.977-1.801 1.954h2.099zm-.235 1.623h-1.864v3.397c.908-.992 1.566-2.134 1.864-3.397zm5.623-1.623v-4.78h-.955c-.298 1.097-1.206 1.954-2.334 2.3l-.783.18c.172.752.298 1.488.298 2.3h3.774zm0-6.373V5.757c-1.081 1.202-1.864 2.706-2.036 4.374l-.658 5.351c.846.466 1.504 1.203 1.739 2.074h.955z" style="fill:var(--color1, #fff)"/></symbol>
<symbol id="lock" viewBox="0 0 32 32"><path stroke-linecap="round" stroke-linejoin="round" stroke-width="2.286" d="M22.667 14.667v-4a6.667 6.667 0 0 0-13.334 0v4M10.4 28h11.2c2.24 0 3.36 0 4.216-.436a3.991 3.991 0 0 0 1.748-1.748C28 24.96 28 23.84 28 21.6v-.533c0-2.24 0-3.36-.436-4.216a3.991 3.991 0 0 0-1.748-1.748c-.856-.436-1.976-.436-4.216-.436H10.4c-2.24 0-3.36 0-4.216.436a3.996 3.996 0 0 0-1.748 1.748C4 17.707 4 18.827 4 21.067v.533c0 2.24 0 3.36.436 4.216a3.991 3.991 0 0 0 1.748 1.748C7.04 28 8.16 28 10.4 28z"/></symbol>
<symbol id="logo" viewBox="0 0 32 32"><path fill="#f6f6f6" d="m0 0 16.343 16.171L32 32V0H0z" style="fill:var(--color4, #f6f6f6)"/><path fill="#f6f6f6" d="M4.457 4.229 16.4 16.058l11.257 11.486h-23.2V4.23z" style="fill:var(--color4, #f6f6f6)"/><path fill="#4f2ee8" d="M27.733 27.618 15.79 15.789 4.533 4.303h23.2v23.314z" style="fill:var(--color3, #4f2ee8)"/><path fill="#4f2ee8" d="m9.257 9.029 13.6 13.6h-13.6v-13.6z" style="fill:var(--color3, #4f2ee8)"/><path fill="#f6f6f6" d="m9.257 9.029 13.6 13.6v-13.6h-13.6z" style="fill:var(--color4, #f6f6f6)"/></symbol>
<symbol id="mail" viewBox="0 0 32 32"><path stroke-linecap="round" stroke-linejoin="round" stroke-width="2.286" d="m28.667 24-8.857-8m-7.619 0-8.857 8M2.667 9.333l10.886 7.621c.882.617 1.322.926 1.802 1.045.424.106.866.106 1.29 0 .479-.12.92-.428 1.802-1.045l10.887-7.621M9.067 26.667h13.867c2.24 0 3.36 0 4.216-.436a3.996 3.996 0 0 0 1.748-1.748c.436-.856.436-1.976.436-4.216v-8.533c0-2.24 0-3.36-.436-4.216A3.996 3.996 0 0 0 27.15 5.77c-.856-.436-1.976-.436-4.216-.436H9.067c-2.24 0-3.36 0-4.216.436a3.991 3.991 0 0 0-1.748 1.748c-.436.856-.436 1.976-.436 4.216v8.533c0 2.24 0 3.36.436 4.216a3.996 3.996 0 0 0 1.748 1.748c.856.436 1.976.436 4.216.436z"/></symbol>
<symbol id="menu-burger" viewBox="0 0 32 32"><path stroke-linecap="round" stroke-linejoin="round" stroke-width="2.286" d="M22.667 13.333H4M28 8H4M28 18.667H4M22.667 24H4"/></symbol>
<symbol id="user" viewBox="0 0 32 32"><path fill="#f6f6f6" d="M32 16c0 8.837-7.163 16-16 16S0 24.837 0 16 7.163 0 16 0s16 7.163 16 16z" style="fill:var(--color4, #f6f6f6)"/><path fill="#4f2ee8" d="M10.523 22.847a5.477 5.477 0 1 1 10.954 0H10.522zM16 16.685c-2.27 0-4.108-1.838-4.108-4.108S13.73 8.469 16 8.469c2.27 0 4.108 1.838 4.108 4.108S18.27 16.685 16 16.685z" style="fill:var(--color3, #4f2ee8)"/></symbol>

<symbol id="icon-close" viewBox="0 0 32 32">
      <path d="M32 3.223 28.777 0 16 12.777 3.223 0 0 3.223 12.777 16 0 28.777 3.223 32 16 19.223 28.777 32 32 28.777 19.223 16 32 3.223z"/>
    </symbol>
    <symbol id="x-close" viewBox="0 0 32 32"><path stroke-linecap="round" stroke-linejoin="round" stroke-width="3.429" d="M24 8 8 24M8 8l16 16"/></symbol>
<symbol id="icon-cart" viewBox="0 0 32 32">
<path d="M25.333 9.333h-4v-1.333c0-2.945-2.388-5.333-5.333-5.333s-5.333 2.388-5.333 5.333v0 1.333h-4c-0 0-0.001 0-0.002 0-0.736 0-1.333 0.597-1.333 1.333 0 0.001 0 0.001 0 0.002v-0 14.666c0 2.209 1.791 4 4 4v0h13.334c2.209 0 4-1.791 4-4v0-14.666c0-0 0-0.001 0-0.002 0-0.736-0.597-1.333-1.333-1.333-0.001 0-0.001 0-0.002 0h0zM13.333 8c0-1.473 1.194-2.667 2.667-2.667s2.667 1.194 2.667 2.667v0 1.333h-5.334v-1.333zM24 25.333c0 0.736-0.597 1.334-1.333 1.334h-13.335c-0.736 0-1.333-0.597-1.333-1.333 0-0.001 0-0.001 0-0.002v0-13.333h2.667v1.333c0 0.736 0.597 1.333 1.333 1.333s1.333-0.597 1.333-1.333v0-1.333h5.334v1.333c0 0.736 0.597 1.333 1.333 1.333s1.333-0.597 1.333-1.333v0-1.333h2.667v13.333z"></path>
</symbol>

<symbol id="icon-Bookshelf-1" viewBox="0 0 178 32">
<path d="M22.176 8.533c0-4.731-3.497-7.406-9.545-7.406h-12.631v29.417h13.33c6.089 0 9.998-2.921 9.998-8.599 0-4.402-2.633-6.665-5.719-7.2v-0.082c2.427-0.823 4.567-2.51 4.567-6.13zM4.896 13.305v-8.023h7.858c2.921 0 4.526 1.44 4.526 4.032s-1.317 3.991-4.814 3.991h-7.57zM4.896 16.967h8.599c3.086 0 4.937 1.687 4.937 4.69 0 2.757-1.275 4.731-5.472 4.731h-8.064v-9.422zM35.89 31.161c-6.583 0-10.574-4.567-10.574-11.109s3.991-11.109 10.574-11.109c6.583 0 10.574 4.567 10.574 11.109s-3.991 11.109-10.574 11.109zM35.89 27.623c4.114 0 6.254-3.25 6.254-7.57 0-4.361-2.139-7.57-6.254-7.57s-6.254 3.209-6.254 7.57c0 4.32 2.139 7.57 6.254 7.57zM58.912 31.161c-6.583 0-10.574-4.567-10.574-11.109s3.991-11.109 10.574-11.109c6.583 0 10.574 4.567 10.574 11.109s-3.991 11.109-10.574 11.109zM58.912 27.623c4.114 0 6.254-3.25 6.254-7.57 0-4.361-2.139-7.57-6.254-7.57s-6.254 3.209-6.254 7.57c0 4.32 2.139 7.57 6.254 7.57zM72.471 1.127v29.417h4.32v-7.611l2.921-2.757 6.624 10.368h5.184l-8.846-13.207 7.982-7.817h-5.307l-8.558 8.434v-16.827h-4.32zM101.934 17.831c-3.045-0.699-5.39-0.864-5.39-3.003 0-1.481 1.399-2.469 3.991-2.469 3.374 0 4.197 1.687 4.485 3.333h4.197c-0.288-3.662-3.003-6.747-8.722-6.747-5.266 0-8.311 2.757-8.311 6.213 0 4.773 4.526 5.431 7.858 6.213 3.086 0.741 5.595 0.946 5.595 3.579 0 1.317-1.275 2.798-4.279 2.798-4.443 0-5.431-1.934-5.637-4.197h-4.197c0.206 4.443 3.127 7.611 9.915 7.611 5.102 0 8.558-2.51 8.558-6.542 0-5.019-4.197-5.883-8.064-6.789zM124.123 8.944c-3.538 0-5.719 1.646-6.83 3.291h-0.082v-11.109h-4.32v29.417h4.32v-12.795c0-3.127 2.263-5.143 5.431-5.143 3.003 0 4.197 1.81 4.197 4.649v13.289h4.361v-14.523c0-4.814-3.086-7.077-7.077-7.077zM144.448 27.623c-3.826 0-6.089-2.921-6.089-6.459h16.128c0-7.488-3.333-12.219-10.121-12.219-6.336 0-10.327 4.279-10.327 11.109 0 6.583 3.991 11.109 10.533 11.109 5.39 0 8.517-3.045 9.586-7.035h-4.32c-0.37 1.275-1.81 3.497-5.39 3.497zM144.366 12.359c3.497 0 5.801 2.345 5.801 5.595h-11.808c0-3.25 2.51-5.595 6.007-5.595zM157.531 1.127v29.417h4.361v-29.417h-4.361zM176.002 4.665v-3.538c-0.864-0.179-1.858-0.284-2.877-0.288h-0.003c-3.456 0-5.349 1.563-5.349 6.007v2.674h-3.003v3.538h3.003v17.486h4.361v-17.486h3.867v-3.538h-3.865v-2.304c0-2.386 1.070-2.674 3.867-2.551z"></path>
</symbol>

</defs>
</svg>